<svg width="30" height="30" viewBox="0 0 30 30" fill="none" xmlns="http://www.w3.org/2000/svg">
<path d="M30 15C30 23.279 23.279 30 15 30C6.72103 30 0 23.2843 0 15C0 6.71573 6.72103 0 15 0C23.279 0 30 6.72103 30 15Z" fill="#0DB760"/>
<path d="M2.61477 18.1456L4.07093 19.1891L3.42883 19.3843L2.90329 19.544L3.11157 20.0523C5.06878 24.8283 9.72223 28.1878 15.1604 28.1878C22.371 28.1878 28.2002 22.2813 28.2002 15C28.2002 7.71867 22.371 1.81223 15.1604 1.81223C15.1192 1.81223 15.0783 1.81244 15.0375 1.81284L15.0348 1.75068C15.0767 1.75023 15.1186 1.75 15.1604 1.75C22.3793 1.75 28.25 7.68154 28.25 15C28.25 22.3185 22.3793 28.25 15.1604 28.25C9.682 28.25 4.9766 24.8309 3.02918 19.9831L2.85885 19.5592L2.42127 19.6907L2.04157 19.8048L2.61477 18.1456ZM14.4736 13.2704L14.4733 13.27C14.0603 12.8033 13.6302 12.1484 13.2739 11.3937C12.72 10.2136 12.3766 8.83176 12.4347 7.56382L21.0789 9.80389C20.5324 10.9451 19.5787 11.9874 18.5282 12.7551L18.5274 12.7556C17.8607 13.2447 17.1747 13.6089 16.5922 13.8144L16.5916 13.8146C16.28 13.9249 15.9967 13.9819 15.7694 14.0074L15.425 14.0461L15.3404 14.3822L15.0255 15.6333L14.9409 15.9693L15.2257 16.1665C15.4124 16.2957 15.6274 16.4808 15.8471 16.7296L15.8475 16.7299C16.2605 17.1967 16.6905 17.8515 17.0468 18.6061C17.6007 19.7862 17.9442 21.1682 17.8861 22.4362L9.24192 20.1961C9.78835 19.0549 10.7421 18.0126 11.7926 17.2449L11.7934 17.2444C12.4601 16.7553 13.1461 16.3911 13.7286 16.1856L13.7292 16.1854C14.0485 16.0723 14.3216 16.0129 14.5393 15.9938L14.8936 15.9626L14.9804 15.6178L15.2953 14.3667L15.3799 14.0307L15.095 13.8335C14.9084 13.7043 14.6934 13.5192 14.4736 13.2704ZM11.7467 2.20585C12.1367 2.0996 12.5323 2.01132 12.9356 1.9416L12.9437 2.00216C12.5452 2.0711 12.1514 2.15834 11.7653 2.26311L11.7467 2.20585ZM8.69402 3.54517L8.66495 3.49809C9.02163 3.29086 9.3885 3.10028 9.76557 2.92716L9.78673 2.98039C9.41248 3.15166 9.0479 3.34026 8.69402 3.54517ZM6.95701 4.74544C6.64517 5.00145 6.34328 5.27223 6.05441 5.55725L6.01752 5.52213C6.30767 5.23532 6.61075 4.96227 6.92579 4.70383L6.95701 4.74544ZM23.1088 8.19333L11.4203 5.16968L11.4349 5.1109L23.123 8.13661L23.1088 8.19333ZM3.99608 8.18131L3.95306 8.15683C4.16493 7.80232 4.39253 7.45796 4.63473 7.12665L4.67343 7.15804C4.43262 7.48782 4.20655 7.82891 3.99608 8.18131ZM2.65875 11.2363L2.61088 11.2247C2.72781 10.827 2.86269 10.4372 3.01456 10.0544L3.05998 10.0749C2.90896 10.4543 2.77493 10.8415 2.65875 11.2363ZM2.07845 14.5474C2.09264 14.128 2.1264 13.713 2.17839 13.3044L2.22734 13.3125C2.17584 13.7188 2.14243 14.1306 2.12831 14.5468L2.07845 14.5474ZM18.8861 24.888L7.19783 21.8633L7.21199 21.8067L18.9003 24.8314L18.8861 24.888Z" stroke="white"/>
</svg>
