<svg width="28" height="28" viewBox="0 0 28 28" fill="none" xmlns="http://www.w3.org/2000/svg">
<path d="M1.61477 17.1456L3.07093 18.1891L2.42883 18.3843L1.90329 18.544L2.11157 19.0523C4.06878 23.8283 8.72223 27.1878 14.1604 27.1878C21.371 27.1878 27.2002 21.2813 27.2002 14C27.2002 6.71867 21.371 0.812231 14.1604 0.812231C14.1192 0.812231 14.0783 0.812438 14.0375 0.812844L14.0348 0.750681C14.0767 0.750231 14.1186 0.75 14.1604 0.75C21.3793 0.75 27.25 6.68154 27.25 14C27.25 21.3185 21.3793 27.25 14.1604 27.25C8.682 27.25 3.9766 23.8309 2.02918 18.9831L1.85885 18.5592L1.42127 18.6907L1.04157 18.8048L1.61477 17.1456ZM20.0789 8.80389C19.5324 9.94514 18.5787 10.9874 17.5282 11.7551L17.5274 11.7556C16.8607 12.2447 16.1747 12.6089 15.5922 12.8144L15.5916 12.8146C15.28 12.925 14.9967 12.9819 14.7694 13.0074L14.425 13.0461L14.3404 13.3822L14.0255 14.6333L13.9409 14.9693L14.2257 15.1665C14.4124 15.2957 14.6274 15.4808 14.8471 15.7296L14.8475 15.7299C15.2605 16.1967 15.6905 16.8515 16.0468 17.6061C16.6007 18.7862 16.9442 20.1682 16.8861 21.4362L8.24192 19.1961C8.78835 18.0549 9.74209 17.0126 10.7926 16.2449L10.7934 16.2444C11.4601 15.7553 12.1461 15.3911 12.7286 15.1856L12.7292 15.1854C13.0485 15.0723 13.3216 15.0129 13.5393 14.9938L13.8936 14.9626L13.9804 14.6178L14.2953 13.3667L14.3799 13.0307L14.095 12.8335C13.9084 12.7043 13.6934 12.5192 13.4736 12.2704L13.4733 12.27C13.0603 11.8033 12.6302 11.1484 12.2739 10.3937C11.72 9.21364 11.3766 7.83176 11.4347 6.56382L20.0789 8.80389ZM10.7467 1.20585C11.1367 1.0996 11.5323 1.01132 11.9356 0.941601L11.9437 1.00216C11.5452 1.0711 11.1514 1.15834 10.7653 1.26311L10.7467 1.20585ZM7.69402 2.54517L7.66495 2.49809C8.02163 2.29086 8.3885 2.10028 8.76557 1.92716L8.78673 1.98039C8.41248 2.15166 8.0479 2.34026 7.69402 2.54517ZM5.95701 3.74544C5.64517 4.00145 5.34328 4.27223 5.05441 4.55725L5.01752 4.52213C5.30767 4.23532 5.61075 3.96227 5.92579 3.70383L5.95701 3.74544ZM22.1088 7.19333L10.4203 4.16968L10.4349 4.1109L22.123 7.13661L22.1088 7.19333ZM2.99608 7.18131L2.95306 7.15683C3.16493 6.80231 3.39253 6.45796 3.63473 6.12665L3.67343 6.15804C3.43262 6.48782 3.20655 6.82891 2.99608 7.18131ZM1.65875 10.2363L1.61088 10.2247C1.72781 9.82696 1.86269 9.43721 2.01456 9.05444L2.05998 9.07485C1.90896 9.45434 1.77493 9.8415 1.65875 10.2363ZM1.07845 13.5474C1.09264 13.128 1.1264 12.713 1.17839 12.3044L1.22734 12.3125C1.17584 12.7188 1.14243 13.1306 1.12831 13.5468L1.07845 13.5474ZM17.8861 23.888L6.19783 20.8633L6.21199 20.8067L17.9003 23.8314L17.8861 23.888Z" stroke="white"/>
</svg>
