<svg width="21" height="21" viewBox="0 0 21 21" fill="none" xmlns="http://www.w3.org/2000/svg">
<path d="M17.9365 6.33855C17.2241 5.5589 16.0388 5.17337 14.3221 5.18226L14.1221 5.1833L14.122 5.14996C14.1147 3.74998 14.1057 2.01667 10.9724 2.0329L9.70579 2.03947C6.5725 2.0557 6.58152 3.79734 6.58873 5.18899L6.58894 5.23066L6.38895 5.23169C4.66397 5.24063 3.49102 5.63838 2.78675 6.42537C1.96651 7.3463 1.9979 8.57949 2.08559 9.42071L2.09423 9.479L2.1619 10.1562C2.17505 10.2811 2.2423 10.3932 2.34765 10.461C2.54833 10.5908 2.88361 10.8049 3.08502 10.9156C3.20207 10.9899 3.32741 11.056 3.45276 11.122C4.8818 11.8979 6.45116 12.4148 8.04414 12.6649C8.1232 13.4478 8.46961 14.3627 10.2946 14.3532C12.1196 14.3438 12.4732 13.4336 12.5273 12.625C14.2259 12.3412 15.8645 11.741 17.3433 10.8667C17.3932 10.8414 17.4264 10.8163 17.4679 10.791C17.7978 10.6018 18.1391 10.3701 18.4504 10.1426C18.4967 10.1087 18.5355 10.0654 18.564 10.0156C18.5926 9.96579 18.6105 9.91054 18.6164 9.85341L18.6291 9.73417L18.6687 9.3423C18.6768 9.29226 18.6766 9.25059 18.6846 9.19221C18.7469 8.35021 18.7243 7.20031 17.9365 6.33772L17.9365 6.33855ZM11.2995 12.0813C11.3041 12.9647 11.3048 13.098 10.2798 13.1033C9.25479 13.1086 9.25397 12.9503 9.24957 12.1003L9.24413 11.0503L11.2941 11.0397L11.2995 12.0813ZM7.78055 5.21615L7.78038 5.18282C7.77304 3.76617 7.77032 3.24118 9.71196 3.23112L10.9786 3.22456C12.9203 3.2145 12.923 3.74782 12.9303 5.15614L12.9305 5.1978L7.7806 5.22448L7.78055 5.21615Z" fill="#0FB700"/>
<path d="M17.7838 11.9686C17.851 11.9362 17.9256 11.9221 18 11.9277C18.0744 11.9333 18.146 11.9584 18.2076 12.0005C18.2691 12.0426 18.3185 12.1002 18.3507 12.1675C18.3829 12.2348 18.3968 12.3094 18.391 12.3838L18.1081 15.6803C17.9417 17.3478 17.2672 19.0514 13.6006 19.0704L7.25149 19.1032C3.58487 19.1222 2.89274 17.4258 2.70915 15.7684L2.40964 12.6466C2.40296 12.573 2.41563 12.499 2.44642 12.4318C2.47721 12.3647 2.52503 12.3067 2.58513 12.2638C2.64524 12.2209 2.71553 12.1944 2.78904 12.187C2.86254 12.1797 2.93669 12.1917 3.00412 12.2218C3.95633 12.6469 5.71192 13.3995 6.79588 13.6772C6.86353 13.6952 6.92638 13.7279 6.97991 13.773C7.03345 13.8181 7.07636 13.8745 7.10556 13.9381C7.61699 15.0171 8.71663 15.5873 10.3008 15.5791C11.8691 15.5709 12.9768 14.9669 13.4787 13.8801C13.5073 13.8162 13.5496 13.7594 13.6027 13.7137C13.6557 13.6681 13.7182 13.6347 13.7857 13.616C14.9332 13.3075 16.7946 12.4462 17.7855 11.9686L17.7838 11.9686Z" fill="#0FB700"/>
</svg>
