<svg width="18" height="17" viewBox="0 0 18 17" fill="none" xmlns="http://www.w3.org/2000/svg">
<path d="M12.1207 0.209002L5.1375 0.245181C2.10421 0.260895 0.305267 2.07857 0.320982 5.11187L0.357117 12.0868C0.372875 15.1284 2.19055 16.9273 5.22384 16.9116L12.1988 16.8755C15.232 16.8598 17.031 15.0421 17.0153 12.0088L16.9791 5.02556C16.9717 1.99223 15.154 0.193288 12.1207 0.209002ZM11.8134 11.6691L5.56352 11.7015C5.22186 11.7032 4.93706 11.4214 4.93529 11.0797C4.93352 10.738 5.21539 10.4532 5.55705 10.4515L11.807 10.4191C12.1486 10.4173 12.4334 10.6992 12.4352 11.0409C12.437 11.3825 12.1551 11.6673 11.8134 11.6691ZM11.7875 6.66915L5.53762 6.70153C5.19596 6.7033 4.91116 6.42144 4.90939 6.07977C4.90762 5.73811 5.18948 5.45331 5.53114 5.45154L11.7811 5.41917C12.1227 5.41739 12.4075 5.69926 12.4093 6.04092C12.4111 6.38258 12.1292 6.66738 11.7875 6.66915Z" fill="#0FB700"/>
</svg>
