<svg width="17" height="17" viewBox="0 0 17 17" fill="none" xmlns="http://www.w3.org/2000/svg">
<path d="M8.4841 0.227336C3.8925 0.251123 0.170263 4.01212 0.194051 8.60373C0.217839 13.1953 3.97884 16.9176 8.57044 16.8938C13.1621 16.87 16.8843 13.109 16.8605 8.51738C16.8367 3.92578 13.0757 0.203548 8.4841 0.227336ZM12.1676 11.5167C12.1263 11.588 12.0712 11.6503 12.0055 11.7C11.9399 11.7498 11.865 11.786 11.7853 11.8066C11.7055 11.8271 11.6225 11.8317 11.541 11.8199C11.4594 11.8081 11.3811 11.7802 11.3104 11.7378L8.71915 10.2096C8.07551 9.82958 7.59615 8.99039 7.59231 8.24873L7.57461 4.83211C7.57284 4.49045 7.8547 4.20565 8.19636 4.20388C8.53803 4.20211 8.82282 4.48397 8.82459 4.82563L8.84229 8.24225C8.84385 8.54225 9.09613 8.98262 9.35524 9.13127L11.9465 10.6595C12.2474 10.833 12.3494 11.2158 12.1676 11.5167Z" fill="#0FB700"/>
</svg>
