<svg width="18" height="17" viewBox="0 0 18 17" fill="none" xmlns="http://www.w3.org/2000/svg">
<path d="M9.03879 0.228556C7.39064 0.237095 5.78202 0.734177 4.41638 1.65694C3.05073 2.57971 1.98938 3.88671 1.36655 5.41268C0.743717 6.93864 0.587372 8.61503 0.917285 10.2299C1.2472 11.8447 2.04855 13.3254 3.22001 14.4848C4.39147 15.6442 5.88042 16.4301 7.49858 16.7433C9.11673 17.0565 10.7914 16.8828 12.3108 16.2442C13.8303 15.6055 15.1262 14.5307 16.0348 13.1556C16.9433 11.7804 17.4237 10.1668 17.4152 8.51861C17.4095 7.42427 17.1884 6.34177 16.7643 5.33291C16.3403 4.32404 15.7217 3.40858 14.9439 2.63877C14.1661 1.86897 13.2443 1.25991 12.2311 0.846364C11.2179 0.432818 10.1331 0.222887 9.03879 0.228556ZM12.6549 6.55157L8.87255 11.5712C8.79544 11.6725 8.69617 11.7547 8.58235 11.8117C8.46852 11.8686 8.34317 11.8987 8.21591 11.8996C8.08934 11.901 7.96412 11.8735 7.84977 11.8192C7.73542 11.7649 7.63494 11.6853 7.55595 11.5864L5.50921 9.00529C5.44146 8.91919 5.39134 8.82059 5.3617 8.71511C5.33205 8.60963 5.32348 8.49935 5.33646 8.39056C5.34943 8.28177 5.38371 8.1766 5.43734 8.08106C5.49096 7.98551 5.56288 7.90147 5.64898 7.83372C5.82287 7.69689 6.044 7.63475 6.26371 7.66096C6.3725 7.67394 6.47767 7.70822 6.57321 7.76184C6.66876 7.81547 6.7528 7.88738 6.82055 7.97349L8.18785 9.69976L11.3162 5.51683C11.3825 5.42894 11.4655 5.35496 11.5604 5.29913C11.6553 5.2433 11.7602 5.20671 11.8692 5.19144C11.9783 5.17617 12.0892 5.18253 12.1958 5.21015C12.3024 5.23777 12.4025 5.28611 12.4904 5.35241C12.5783 5.41871 12.6522 5.50168 12.7081 5.59656C12.7639 5.69145 12.8005 5.79641 12.8158 5.90544C12.831 6.01447 12.8247 6.12544 12.7971 6.23202C12.7694 6.33859 12.7211 6.43868 12.6548 6.52657L12.6549 6.55157Z" fill="#0FB700"/>
</svg>
