<svg width="21" height="21" viewBox="0 0 21 21" fill="none" xmlns="http://www.w3.org/2000/svg">
<path d="M17.7296 13.9225C17.5411 16.1485 15.9404 17.6152 13.6071 17.6273L6.10719 17.6661C3.80722 17.678 1.93091 15.8211 1.91899 13.5211L1.88877 7.68785C1.87703 5.42121 3.23548 3.83082 5.35907 3.55315C5.57556 3.51869 5.80047 3.50086 6.0338 3.49965L13.5337 3.4608C13.7504 3.45968 13.9587 3.46693 14.1589 3.49923C16.1518 3.72224 17.5089 5.10689 17.6944 7.12263C17.6994 7.17967 17.6923 7.23712 17.6737 7.29126C17.655 7.34539 17.6252 7.39499 17.5861 7.43685C17.547 7.4787 17.4996 7.51187 17.4468 7.53419C17.3941 7.55652 17.3373 7.56751 17.28 7.56645L15.9884 7.57314C15.1884 7.57728 14.4483 7.88945 13.9178 8.44221C13.2877 9.06215 12.9755 9.93044 13.055 10.7967C13.1962 12.3127 14.5357 13.4974 16.119 13.4892L17.3107 13.483C17.5523 13.4818 17.7534 13.6807 17.7296 13.9225Z" fill="#0FB700"/>
<path d="M18.5662 9.65988L18.5751 11.3765C18.5775 11.8348 18.2128 12.2117 17.7462 12.2308L16.1129 12.2393C15.2129 12.244 14.3845 11.5899 14.3048 10.6903C14.2521 10.1656 14.4496 9.67287 14.7978 9.3294C15.1045 9.01114 15.5285 8.8256 15.9952 8.82318L17.7285 8.8142C18.1952 8.82845 18.5638 9.20155 18.5662 9.65988Z" fill="#0FB700"/>
</svg>
