<svg width="25" height="25" viewBox="0 0 25 25" fill="none" xmlns="http://www.w3.org/2000/svg">
<path d="M25 12.5C25 19.3991 19.3991 25 12.5 25C5.60086 25 0 19.4036 0 12.5C0 5.59644 5.60086 0 12.5 0C19.3991 0 25 5.60086 25 12.5Z" fill="#0DB760"/>
<path d="M2.22061 15.2545L3.20599 15.9606L2.83247 16.0742L2.30694 16.2339L2.30737 16.235L1.99308 16.3294L1.83259 16.3777L2.22061 15.2545ZM12.1232 11.0038L12.1229 11.0035C11.7847 10.6213 11.4305 10.0825 11.1364 9.45977C10.6939 8.517 10.4159 7.42167 10.4412 6.41022L17.4452 8.22525C16.9909 9.12532 16.2297 9.94892 15.3903 10.5623L15.3896 10.5628C14.8395 10.9664 14.275 11.2656 13.7984 11.4338L13.7978 11.434C13.5446 11.5236 13.3148 11.5697 13.1312 11.5904L12.8589 11.621L12.626 11.4598C12.4763 11.3561 12.3021 11.2064 12.1232 11.0038ZM12.1227 13.4115L12.4159 13.3857L12.64 13.5409C12.7897 13.6445 12.9639 13.7942 13.1428 13.9968L13.1432 13.9972C13.4813 14.3793 13.8356 14.9181 14.1296 15.5409C14.5721 16.4836 14.8501 17.579 14.8248 18.5904L7.82086 16.7754C8.27511 15.8753 9.03632 15.0517 9.8757 14.4384L9.87643 14.4378C10.4265 14.0343 10.991 13.735 11.4676 13.5669L11.4682 13.5667C11.7291 13.4743 11.9498 13.4267 12.1227 13.4115Z" stroke="white"/>
</svg>
