<svg width="21" height="20" viewBox="0 0 21 20" fill="none" xmlns="http://www.w3.org/2000/svg">
<path d="M5.78711 19.8747C4.20725 19.8747 2.86176 19.3191 1.75065 18.208C0.63954 17.0969 0.0839844 15.7514 0.0839844 14.1715C0.0839844 12.6785 0.58329 11.3893 1.5819 10.3038C2.58051 9.21842 3.826 8.6153 5.31836 8.49447L1.88086 1.59342C1.70725 1.2462 1.72044 0.90766 1.92044 0.577799C2.12044 0.247938 2.41975 0.0830078 2.81836 0.0830078H7.14128C7.54058 0.0830078 7.901 0.187174 8.22253 0.395508C8.54405 0.603841 8.79996 0.881619 8.99024 1.22884L10.5007 4.24967L12.0111 1.22884C12.202 0.881619 12.4583 0.603841 12.7798 0.395508C13.1013 0.187174 13.4614 0.0830078 13.86 0.0830078H18.1829C18.5823 0.0830078 18.8819 0.247938 19.0819 0.577799C19.2819 0.90766 19.2948 1.2462 19.1204 1.59342L15.709 8.44238C17.1847 8.58127 18.4218 9.19342 19.4204 10.2788C20.4191 11.3643 20.918 12.6531 20.9173 14.1455C20.9173 15.7427 20.3618 17.0969 19.2507 18.208C18.1395 19.3191 16.7854 19.8747 15.1882 19.8747C15.0319 19.8747 14.8711 19.8702 14.7059 19.8611C14.5406 19.8521 14.3802 19.8306 14.2246 19.7965C15.1795 19.1715 15.926 18.3601 16.4642 17.3622C17.0024 16.3643 17.2715 15.292 17.2715 14.1455C17.2715 12.2531 16.6159 10.6518 15.3048 9.34134C13.9937 8.03092 12.3923 7.37537 10.5007 7.37467C8.60829 7.37467 7.0069 8.03023 5.69649 9.34134C4.38607 10.6525 3.73051 12.2538 3.72982 14.1455C3.72982 15.3261 3.97287 16.4372 4.45898 17.4788C4.9451 18.5205 5.70898 19.2931 6.75065 19.7965C6.5944 19.8313 6.43364 19.8531 6.26836 19.8622C6.10308 19.8712 5.94197 19.8754 5.78711 19.8747ZM10.5007 18.833C9.19857 18.833 8.09162 18.3771 7.17982 17.4653C6.26801 16.5535 5.81246 15.4469 5.81315 14.1455C5.81315 12.8434 6.26905 11.7365 7.18086 10.8247C8.09267 9.91287 9.19926 9.45731 10.5007 9.45801C11.8027 9.45801 12.9097 9.91391 13.8215 10.8257C14.7333 11.7375 15.1888 12.8441 15.1882 14.1455C15.1882 15.4476 14.7322 16.5545 13.8204 17.4663C12.9086 18.3781 11.802 18.8337 10.5007 18.833ZM9.69336 14.9528L10.2663 16.2288C10.3184 16.333 10.3965 16.3851 10.5007 16.3851C10.6048 16.3851 10.6829 16.333 10.735 16.2288L11.3079 14.9528L12.584 14.3799C12.6882 14.3278 12.7402 14.2497 12.7402 14.1455C12.7402 14.0413 12.6882 13.9632 12.584 13.9111L11.3079 13.3382L10.735 12.0622C10.6829 11.958 10.6048 11.9059 10.5007 11.9059C10.3965 11.9059 10.3184 11.958 10.2663 12.0622L9.69336 13.3382L8.41732 13.9111C8.31315 13.9632 8.26107 14.0413 8.26107 14.1455C8.26107 14.2497 8.31315 14.3278 8.41732 14.3799L9.69336 14.9528Z" fill="#0DB760"/>
</svg>
