<svg width="27" height="31" viewBox="0 0 27 31" fill="none" xmlns="http://www.w3.org/2000/svg">
<path d="M6.125 9.25C5.89294 9.25 5.67038 9.34219 5.50628 9.50628C5.34219 9.67038 5.25 9.89294 5.25 10.125C5.25 10.3571 5.34219 10.5796 5.50628 10.7437C5.67038 10.9078 5.89294 11 6.125 11H14.875C15.1071 11 15.3296 10.9078 15.4937 10.7437C15.6578 10.5796 15.75 10.3571 15.75 10.125C15.75 9.89294 15.6578 9.67038 15.4937 9.50628C15.3296 9.34219 15.1071 9.25 14.875 9.25H6.125ZM6.125 19.75C5.89294 19.75 5.67038 19.8422 5.50628 20.0063C5.34219 20.1704 5.25 20.3929 5.25 20.625C5.25 20.8571 5.34219 21.0796 5.50628 21.2437C5.67038 21.4078 5.89294 21.5 6.125 21.5H9.625C9.85706 21.5 10.0796 21.4078 10.2437 21.2437C10.4078 21.0796 10.5 20.8571 10.5 20.625C10.5 20.3929 10.4078 20.1704 10.2437 20.0063C10.0796 19.8422 9.85706 19.75 9.625 19.75H6.125ZM4.375 0.5C4.14294 0.5 3.92038 0.592187 3.75628 0.756282C3.59219 0.920376 3.5 1.14294 3.5 1.375V2.25H2.625C1.92881 2.25 1.26113 2.52656 0.768844 3.01884C0.276561 3.51113 0 4.17881 0 4.875V25.875C0 26.5712 0.276561 27.2389 0.768844 27.7312C1.26113 28.2234 1.92881 28.5 2.625 28.5H12.8922C12.6044 27.9527 12.4099 27.3613 12.3165 26.75H2.625C2.39294 26.75 2.17038 26.6578 2.00628 26.4937C1.84219 26.3296 1.75 26.1071 1.75 25.875V4.875C1.75 4.64294 1.84219 4.42038 2.00628 4.25628C2.17038 4.09219 2.39294 4 2.625 4H18.375C18.6071 4 18.8296 4.09219 18.9937 4.25628C19.1578 4.42038 19.25 4.64294 19.25 4.875V12.8218C19.8293 12.7245 20.4207 12.7245 21 12.8218V4.875C21 4.17881 20.7234 3.51113 20.2312 3.01884C19.7389 2.52656 19.0712 2.25 18.375 2.25H17.5V1.375C17.5 1.14294 17.4078 0.920376 17.2437 0.756282C17.0796 0.592187 16.8571 0.5 16.625 0.5C16.3929 0.5 16.1704 0.592187 16.0063 0.756282C15.8422 0.920376 15.75 1.14294 15.75 1.375V2.25H11.375V1.375C11.375 1.14294 11.2828 0.920376 11.1187 0.756282C10.9546 0.592187 10.7321 0.5 10.5 0.5C10.2679 0.5 10.0454 0.592187 9.88128 0.756282C9.71719 0.920376 9.625 1.14294 9.625 1.375V2.25H5.25V1.375C5.25 1.14294 5.15781 0.920376 4.99372 0.756282C4.82962 0.592187 4.60706 0.5 4.375 0.5ZM20.125 21.5C21.0533 21.5 21.9435 21.1313 22.5999 20.4749C23.2563 19.8185 23.625 18.9283 23.625 18C23.625 17.0717 23.2563 16.1815 22.5999 15.5251C21.9435 14.8687 21.0533 14.5 20.125 14.5C19.1967 14.5 18.3065 14.8687 17.6501 15.5251C16.9937 16.1815 16.625 17.0717 16.625 18C16.625 18.9283 16.9937 19.8185 17.6501 20.4749C18.3065 21.1313 19.1967 21.5 20.125 21.5ZM20.125 30.25C24.5 30.25 26.25 28.0538 26.25 25.875C26.25 25.1788 25.9734 24.5111 25.4812 24.0188C24.9889 23.5266 24.3212 23.25 23.625 23.25H16.625C15.9288 23.25 15.2611 23.5266 14.7688 24.0188C14.2766 24.5111 14 25.1788 14 25.875C14 28.0625 15.75 30.25 20.125 30.25ZM6.125 14.5C5.89294 14.5 5.67038 14.5922 5.50628 14.7563C5.34219 14.9204 5.25 15.1429 5.25 15.375C5.25 15.6071 5.34219 15.8296 5.50628 15.9937C5.67038 16.1578 5.89294 16.25 6.125 16.25H12.25C12.4821 16.25 12.7046 16.1578 12.8687 15.9937C13.0328 15.8296 13.125 15.6071 13.125 15.375C13.125 15.1429 13.0328 14.9204 12.8687 14.7563C12.7046 14.5922 12.4821 14.5 12.25 14.5H6.125Z" fill="#F8F8F8"/>
</svg>
