<svg width="24" height="30" viewBox="0 0 24 30" fill="none" xmlns="http://www.w3.org/2000/svg">
<path d="M10.7254 15.0226L0.528588 4.78931C-0.176193 4.08201 -0.176193 2.9383 0.528588 2.23852L2.22306 0.537994C2.92784 -0.169304 4.06748 -0.169304 4.76476 0.537995L12 7.78405L19.2277 0.530473C19.9325 -0.176825 21.0722 -0.176825 21.7694 0.530474L23.4714 2.231C24.1762 2.9383 24.1762 4.08202 23.4714 4.78179L13.2746 15.015C12.5698 15.7299 11.4302 15.7299 10.7254 15.0226ZM13.2746 29.4695L23.4714 19.2363C24.1762 18.529 24.1762 17.3853 23.4714 16.6855L21.7769 14.9849C21.0722 14.2777 19.9325 14.2777 19.2352 14.9849L12.0075 22.2385L4.77976 14.9849C4.07498 14.2776 2.93533 14.2776 2.23805 14.9849L0.543582 16.6855C-0.161197 17.3928 -0.161197 18.5365 0.543582 19.2363L10.7404 29.4695C11.4302 30.1768 12.5698 30.1768 13.2746 29.4695Z" fill="black"/>
</svg>
