<svg width="1280" height="152" viewBox="0 0 1280 152" fill="none" xmlns="http://www.w3.org/2000/svg">
<path d="M1452.85 8.64134C1414.19 3.2714 1375.7 2.59607 1336.67 3.16793C1229.79 4.73384 1123.15 11.6498 1017.13 25.3934C946.285 34.5784 875.745 44.9124 806.324 61.9658C763.809 72.4098 719.365 81.5293 678.943 98.8699C661.129 106.512 641.846 115.08 626.863 127.647C622.373 131.412 618.301 135.662 618.404 141.828C618.678 158.268 656.019 143.159 662.772 140.418C685.198 131.314 712.85 114.566 726.794 94.0599C744.096 68.6155 704.962 51.8735 686.904 47.0383C652.954 37.9477 617.221 35.6093 582.246 34.6816C508.62 32.7287 434.621 33.125 360.987 34.4329C257.041 36.2792 153.133 44.6255 49.9973 57.5705C-8.62274 64.9282 -66.6214 72.961 -122.001 93.7283" stroke="#2DC97E" stroke-width="5" stroke-linecap="round"/>
</svg>
