<svg width="32" height="32" viewBox="0 0 32 32" fill="none" xmlns="http://www.w3.org/2000/svg">
<path d="M2 17.5V14H10.75V10.5H2V7H10.75V3.5H2V2.97114e-06H10.75C11.7125 2.97114e-06 12.5367 0.343003 13.2227 1.029C13.9088 1.715 14.2512 2.53867 14.25 3.5V6.125C14.25 6.88334 14.0021 7.51042 13.5062 8.00625C13.0104 8.50209 12.3833 8.75 11.625 8.75C12.3833 8.75 13.0104 8.99792 13.5062 9.49375C14.0021 9.98959 14.25 10.6167 14.25 11.375V14C14.25 14.9625 13.907 15.7868 13.221 16.4728C12.535 17.1588 11.7113 17.5012 10.75 17.5H2ZM26.5 17.5H21.25C20.2875 17.5 19.4632 17.157 18.7773 16.471C18.0912 15.785 17.7488 14.9613 17.75 14V3.5C17.75 2.5375 18.093 1.71325 18.779 1.02725C19.465 0.341253 20.2887 -0.0011637 21.25 2.97114e-06H26.5C27.4625 2.97114e-06 28.2868 0.343003 28.9727 1.029C29.6588 1.715 30.0012 2.53867 30 3.5V14C30 14.9625 29.657 15.7868 28.971 16.4728C28.285 17.1588 27.4613 17.5012 26.5 17.5ZM26.5 14V3.5H21.25V14H26.5ZM0.25 31.5V22.75H3.75V31.5H0.25ZM7.25 31.5V22.75H10.75V31.5H7.25ZM14.25 31.5V22.75H17.75V31.5H14.25ZM21.25 31.5V22.75H31.75V31.5H21.25Z" fill="white"/>
</svg>
