<svg width="36" height="35" viewBox="0 0 36 35" fill="none" xmlns="http://www.w3.org/2000/svg">
<path d="M34.5 4.375H28V1.64062C28 0.731445 27.3312 0 26.5 0H9.5C8.66875 0 8 0.731445 8 1.64062V4.375H1.5C0.66875 4.375 0 5.10645 0 6.01562V9.84375C0 12.2842 1.40625 14.793 3.86875 16.7275C5.8375 18.2793 8.23125 19.2637 10.7437 19.5781C12.7062 23.1396 15 24.6094 15 24.6094V29.5312H12C9.79375 29.5312 8 30.9463 8 33.3594V34.1797C8 34.6309 8.3375 35 8.75 35H27.25C27.6625 35 28 34.6309 28 34.1797V33.3594C28 30.9463 26.2062 29.5312 24 29.5312H21V24.6094C21 24.6094 23.2938 23.1396 25.2563 19.5781C27.775 19.2637 30.1687 18.2793 32.1312 16.7275C34.5875 14.793 36 12.2842 36 9.84375V6.01562C36 5.10645 35.3312 4.375 34.5 4.375ZM6.20625 13.1797C4.68125 11.9766 4 10.6367 4 9.84375V8.75H8.0125C8.075 10.9785 8.375 12.9336 8.8125 14.6426C7.86875 14.2871 6.9875 13.7949 6.20625 13.1797ZM32 9.84375C32 10.9443 30.8938 12.3115 29.7938 13.1797C29.0125 13.7949 28.125 14.2871 27.1812 14.6426C27.6187 12.9336 27.9188 10.9785 27.9813 8.75H32V9.84375Z" fill="black"/>
</svg>
