<svg width="38" height="30" viewBox="0 0 38 30" fill="none" xmlns="http://www.w3.org/2000/svg">
<path fill-rule="evenodd" clip-rule="evenodd" d="M23.8895 0.109901C24.1526 0.198766 24.3959 0.339381 24.6055 0.523713C24.8151 0.708045 24.9868 0.932482 25.1109 1.1842C25.235 1.43592 25.309 1.70999 25.3288 1.99076C25.3485 2.27152 25.3135 2.55348 25.2258 2.82052L16.7812 28.5338C16.6042 29.0732 16.2235 29.5191 15.7226 29.7734C15.2218 30.0278 14.6419 30.0698 14.1106 29.8902C13.5792 29.7106 13.1399 29.3242 12.8893 28.8158C12.6386 28.3075 12.5973 27.7189 12.7742 27.1796L21.2188 1.46628C21.3064 1.1992 21.4449 0.952245 21.6265 0.739523C21.8081 0.526802 22.0293 0.352482 22.2773 0.226522C22.5253 0.100563 22.7953 0.0254319 23.0719 0.00542161C23.3486 -0.0145886 23.6264 0.0209142 23.8895 0.109901ZM9.93678 7.05679C10.3326 7.45862 10.5549 8.00354 10.5549 8.57173C10.5549 9.13992 10.3326 9.68484 9.93678 10.0867L5.09589 15.0001L9.93678 19.9135C10.1384 20.1111 10.2993 20.3476 10.4099 20.609C10.5205 20.8704 10.5788 21.1516 10.5812 21.4361C10.5837 21.7206 10.5302 22.0028 10.4241 22.2661C10.3179 22.5295 10.1612 22.7687 9.96295 22.9699C9.76473 23.1711 9.52901 23.3302 9.26956 23.4379C9.01011 23.5457 8.73211 23.5999 8.45179 23.5974C8.17147 23.595 7.89445 23.5358 7.63688 23.4235C7.37931 23.3112 7.14635 23.148 6.9516 22.9433L0.618119 16.515C0.222338 16.1132 0 15.5683 0 15.0001C0 14.4319 0.222338 13.887 0.618119 13.4851L6.9516 7.05679C7.3475 6.65508 7.88439 6.42941 8.44419 6.42941C9.004 6.42941 9.54088 6.65508 9.93678 7.05679ZM28.0632 7.05679C28.4591 6.65508 28.996 6.42941 29.5558 6.42941C30.1156 6.42941 30.6525 6.65508 31.0484 7.05679L37.3819 13.4851C37.7777 13.887 38 14.4319 38 15.0001C38 15.5683 37.7777 16.1132 37.3819 16.515L31.0484 22.9433C30.8536 23.148 30.6207 23.3112 30.3631 23.4235C30.1056 23.5358 29.8285 23.595 29.5482 23.5974C29.2679 23.5999 28.9899 23.5457 28.7304 23.4379C28.471 23.3302 28.2353 23.1711 28.037 22.9699C27.8388 22.7687 27.6821 22.5295 27.5759 22.2661C27.4698 22.0028 27.4163 21.7206 27.4188 21.4361C27.4212 21.1516 27.4795 20.8704 27.5901 20.609C27.7007 20.3476 27.8616 20.1111 28.0632 19.9135L32.9041 15.0001L28.0632 10.0867C27.6674 9.68484 27.4451 9.13992 27.4451 8.57173C27.4451 8.00354 27.6674 7.45862 28.0632 7.05679Z" fill="white"/>
</svg>
