<svg width="30" height="28" viewBox="0 0 30 28" fill="none" xmlns="http://www.w3.org/2000/svg">
<path fill-rule="evenodd" clip-rule="evenodd" d="M27 0H3C1.35 0 0 1.4 0 3.11111V24.8889C0 26.6 1.35 28 3 28H27C28.65 28 30 26.6 30 24.8889V3.11111C30 1.4 28.65 0 27 0ZM10.5 21.7778H6C5.175 21.7778 4.5 21.0778 4.5 20.2222C4.5 19.3667 5.175 18.6667 6 18.6667H10.5C11.325 18.6667 12 19.3667 12 20.2222C12 21.0778 11.325 21.7778 10.5 21.7778ZM10.5 15.5556H6C5.175 15.5556 4.5 14.8556 4.5 14C4.5 13.1444 5.175 12.4444 6 12.4444H10.5C11.325 12.4444 12 13.1444 12 14C12 14.8556 11.325 15.5556 10.5 15.5556ZM10.5 9.33333H6C5.175 9.33333 4.5 8.63333 4.5 7.77778C4.5 6.92222 5.175 6.22222 6 6.22222H10.5C11.325 6.22222 12 6.92222 12 7.77778C12 8.63333 11.325 9.33333 10.5 9.33333ZM25.05 12.6311L20.295 17.5622C19.71 18.1689 18.75 18.1689 18.165 17.5622L16.05 15.3533C15.9111 15.2093 15.801 15.0383 15.7258 14.8502C15.6507 14.662 15.612 14.4603 15.612 14.2567C15.612 14.053 15.6507 13.8513 15.7258 13.6632C15.801 13.475 15.9111 13.304 16.05 13.16C16.1889 13.016 16.3537 12.9017 16.5352 12.8238C16.7166 12.7459 16.9111 12.7057 17.1075 12.7057C17.3039 12.7057 17.4984 12.7459 17.6798 12.8238C17.8613 12.9017 18.0261 13.016 18.165 13.16L19.23 14.2644L22.935 10.4222C23.0738 10.278 23.2386 10.1636 23.4201 10.0855C23.6015 10.0075 23.796 9.96731 23.9925 9.96731C24.189 9.96731 24.3835 10.0075 24.5649 10.0855C24.7464 10.1636 24.9112 10.278 25.05 10.4222L25.065 10.4378C25.635 11.0444 25.635 12.04 25.05 12.6311Z" fill="white"/>
</svg>
