<svg width="33" height="33" viewBox="0 0 33 33" fill="none" xmlns="http://www.w3.org/2000/svg">
<path d="M24.9808 32.147C23.2958 32.147 21.5213 31.7444 19.6872 30.969C17.8978 30.2086 16.0936 29.1648 14.334 27.8973C12.5894 26.6149 10.9044 25.1834 9.30884 23.6177C7.72823 22.0222 6.29673 20.3372 5.02925 18.6074C3.74687 16.8181 2.71797 15.0287 1.98731 13.299C1.21192 11.4499 0.824219 9.66056 0.824219 7.97557C0.824219 6.81247 1.03298 5.70902 1.43559 4.68013C1.85311 3.62142 2.52413 2.63726 3.43372 1.78731C4.58191 0.654038 5.89412 0.0874023 7.29579 0.0874023C7.87734 0.0874023 8.4738 0.221606 8.98079 0.460189C9.56234 0.728595 10.0544 1.1312 10.4123 1.66802L13.8717 6.54407C14.1849 6.9765 14.4235 7.39402 14.5875 7.81154C14.7813 8.25888 14.8857 8.70623 14.8857 9.13866C14.8857 9.7053 14.7217 10.257 14.4086 10.7789C14.1849 11.1815 13.8419 11.614 13.4095 12.0464L12.3955 13.1051C12.4104 13.1498 12.4253 13.1797 12.4402 13.2095C12.6192 13.5226 12.9771 14.0594 13.663 14.8647C14.3936 15.6997 15.0796 16.4602 15.7655 17.161C16.6453 18.0259 17.3759 18.7118 18.0619 19.2785C18.9118 19.9942 19.4635 20.3521 19.7916 20.5161L19.7618 20.5907L20.8503 19.517C21.3126 19.0548 21.7599 18.7118 22.1923 18.4881C23.0125 17.9812 24.0563 17.8917 25.1001 18.3241C25.4878 18.4881 25.9053 18.7118 26.3526 19.025L31.3033 22.5441C31.855 22.9169 32.2576 23.394 32.4962 23.9607C32.7198 24.5273 32.8242 25.0492 32.8242 25.5711C32.8242 26.2868 32.6602 27.0026 32.3471 27.6736C32.0339 28.3446 31.6462 28.9262 31.1541 29.463C30.3042 30.4024 29.3797 31.0734 28.306 31.5059C27.2772 31.9234 26.1588 32.147 24.9808 32.147ZM7.29579 2.32412C6.47566 2.32412 5.71518 2.682 4.98452 3.39775C4.29859 4.03894 3.82142 4.73978 3.52319 5.50026C3.21005 6.27566 3.06094 7.09579 3.06094 7.97557C3.06094 9.36233 3.38899 10.8684 4.04509 12.4192C4.71611 13.9998 5.65553 15.6401 6.84845 17.2803C8.04137 18.9206 9.39831 20.5161 10.8895 22.0222C12.3806 23.4984 13.991 24.8703 15.6462 26.0781C17.2567 27.2561 18.9118 28.2104 20.5521 28.8963C23.1019 29.9849 25.4878 30.2384 27.4561 29.4183C28.2166 29.1051 28.8876 28.6279 29.499 27.942C29.8419 27.5692 30.1103 27.1666 30.334 26.6895C30.5129 26.3167 30.6024 25.929 30.6024 25.5413C30.6024 25.3027 30.5577 25.0641 30.4384 24.7957C30.3937 24.7062 30.3042 24.5422 30.0209 24.3484L25.0703 20.8292C24.772 20.6205 24.5036 20.4714 24.2501 20.367C23.9221 20.2328 23.7879 20.0986 23.2809 20.4117C22.9827 20.5608 22.7142 20.7845 22.416 21.0827L21.2827 22.2011C20.7012 22.7677 19.8065 22.9019 19.1206 22.6484L18.718 22.4695C18.1066 22.1415 17.3909 21.6345 16.6005 20.9635C15.8848 20.3521 15.1094 19.6363 14.17 18.7118C13.4393 17.9662 12.7087 17.1759 11.9482 16.2962C11.2473 15.476 10.7403 14.7752 10.4272 14.1936L10.2483 13.7463C10.1588 13.4033 10.129 13.2095 10.129 13.0007C10.129 12.4639 10.3228 11.9867 10.6956 11.614L11.814 10.4509C12.1122 10.1526 12.3359 9.86932 12.485 9.61583C12.6043 9.42198 12.649 9.25795 12.649 9.10884C12.649 8.98955 12.6043 8.81061 12.5297 8.63167C12.4253 8.39309 12.2613 8.12468 12.0526 7.84136L8.59309 2.9504C8.44398 2.74164 8.26504 2.59253 8.04137 2.48815C7.80278 2.38377 7.54929 2.32412 7.29579 2.32412ZM19.7618 20.6056L19.5232 21.6196L19.9258 20.5758C19.8512 20.5608 19.7916 20.5758 19.7618 20.6056Z" fill="#4BA25D"/>
<path d="M30.2746 10.9728H23.1171C22.5058 10.9728 21.9988 10.4658 21.9988 9.85448V2.69697C21.9988 2.0856 22.5058 1.57861 23.1171 1.57861C23.7285 1.57861 24.2355 2.0856 24.2355 2.69697V8.73612H30.2746C30.886 8.73612 31.393 9.24311 31.393 9.85448C31.393 10.4658 30.886 10.9728 30.2746 10.9728Z" fill="#4BA25D"/>
</svg>
