<svg width="23" height="24" viewBox="0 0 23 24" fill="none" xmlns="http://www.w3.org/2000/svg">
<path d="M17.3625 23.0429C16.1514 23.0429 14.876 22.7535 13.5578 22.1962C12.2717 21.6496 10.9748 20.8994 9.71016 19.9884C8.44548 19.0666 7.23439 18.027 6.09832 16.9017C4.96226 15.7549 3.93336 14.5438 3.02237 13.3006C2.10065 12.0144 1.36114 10.7391 0.835974 9.48509C0.278658 8.16682 0 6.88071 0 5.66962C0 4.83364 0.150047 4.04054 0.439422 3.30103C0.750233 2.52936 1.22181 1.83271 1.87558 1.22181C2.70084 0.417987 3.64399 0 4.65145 0C5.06943 0 5.49814 0.0964585 5.86254 0.26794C6.28052 0.460857 6.6342 0.750233 6.89143 1.13607L9.37791 4.64073C9.60298 4.95154 9.77446 5.25163 9.89236 5.55172C10.0317 5.87325 10.1067 6.19478 10.1067 6.50559C10.1067 6.91286 9.98882 7.30941 9.76375 7.68453C9.60298 7.97391 9.35648 8.28472 9.04567 8.59553L8.31687 9.35648C8.32759 9.38863 8.3383 9.41007 8.34902 9.4315C8.47763 9.65657 8.73486 10.0424 9.22787 10.6212C9.74231 11.2213 10.246 11.7572 10.7391 12.2717C11.3821 12.904 11.8966 13.3863 12.3896 13.7936C13.0005 14.308 13.397 14.5652 13.6328 14.6831L13.6114 14.7367L14.3938 13.9651C14.726 13.6328 15.0475 13.3863 15.3583 13.2255C15.9478 12.8611 16.698 12.7968 17.4483 13.1076C17.7269 13.2255 18.027 13.3863 18.3486 13.6114L21.9068 16.1407C22.2926 16.4087 22.5927 16.7516 22.7642 17.1589C22.925 17.5662 23 17.9413 23 18.3164C23 18.8309 22.8821 19.3453 22.657 19.8276C22.432 20.3099 22.1533 20.7279 21.7996 21.1137C21.1887 21.7889 20.5242 22.2712 19.7526 22.582C19.013 22.8821 18.2092 23.0429 17.3625 23.0429ZM4.65145 1.60764C4.06198 1.60764 3.51538 1.86487 2.99021 2.37931C2.50792 2.84017 2.15424 3.3439 1.93989 3.89049C1.71482 4.44781 1.60764 5.03728 1.60764 5.66962C1.60764 6.66636 1.84343 7.74884 2.315 8.86347C2.7973 9.99954 3.47251 11.1785 4.32992 12.3574C5.18733 13.5363 6.16263 14.6831 7.23439 15.7656C8.30615 16.8267 9.46365 17.8127 10.6533 18.6808C11.8108 19.5275 13.0005 20.2134 14.1794 20.7064C16.0121 21.4888 17.7269 21.671 19.1417 21.0816C19.6883 20.8565 20.1706 20.5135 20.61 20.0205C20.8565 19.7526 21.0494 19.4632 21.2102 19.1202C21.3388 18.8523 21.4031 18.5736 21.4031 18.295C21.4031 18.1235 21.3709 17.952 21.2852 17.7591C21.2637 17.7055 21.1887 17.5769 20.9851 17.4376L17.4268 14.9082C17.2125 14.7582 17.0196 14.651 16.8374 14.576C16.5587 14.4688 16.3765 14.4581 16.1407 14.6081C15.9264 14.7153 15.7335 14.8761 15.5191 15.0904L14.7046 15.8942C14.2866 16.3015 13.6435 16.398 13.1505 16.2158L12.8611 16.0871C12.4217 15.8514 11.9073 15.487 11.3392 15.0047C10.8141 14.5652 10.2782 14.0615 9.59227 13.3863C9.05638 12.8397 8.54194 12.2717 7.99534 11.65C7.49161 11.0606 7.12721 10.5569 6.90214 10.1389L6.76281 9.81734C6.69851 9.58155 6.67707 9.44222 6.67707 9.29217C6.67707 8.90634 6.8164 8.56338 7.08434 8.29543L7.88816 7.45946C8.10252 7.24511 8.26328 7.04147 8.37046 6.85927C8.4562 6.71995 8.48835 6.60205 8.48835 6.49488C8.48835 6.40913 8.4562 6.28052 8.40261 6.15191C8.3383 5.96971 8.22041 5.78751 8.07036 5.57316L5.58388 2.05778C5.4767 1.90774 5.34809 1.80056 5.18733 1.72554C5.01584 1.65051 4.83364 1.60764 4.65145 1.60764ZM13.6114 14.7474L13.4399 15.4762L13.7293 14.726C13.6864 14.7153 13.6435 14.726 13.6114 14.7474Z" fill="#4BA25D"/>
<path d="M16.8807 8.00605C16.677 8.00605 16.4734 7.93102 16.3126 7.77026L14.1691 5.62674C13.8583 5.31593 13.8583 4.80148 14.1691 4.49067C14.4799 4.17986 14.9944 4.17986 15.3052 4.49067L16.8807 6.06616L20.5997 2.35786C20.9105 2.04705 21.4249 2.04705 21.7357 2.35786C22.0466 2.66867 22.0466 3.18312 21.7357 3.49393L17.4487 7.78098C17.2879 7.92031 17.0843 8.00605 16.8807 8.00605Z" fill="#4BA25D"/>
</svg>
