<svg width="24" height="24" viewBox="0 0 24 24" fill="none" xmlns="http://www.w3.org/2000/svg">
<path d="M8.84334 18.4656C8.73636 18.4656 8.64009 18.4442 8.53311 18.4015C8.23357 18.2838 8.04102 17.9842 8.04102 17.6633V11.2447C8.04102 10.8061 8.40474 10.4424 8.84334 10.4424C9.28195 10.4424 9.64567 10.8061 9.64567 11.2447V15.727L10.4159 14.9568C10.7261 14.6466 11.2396 14.6466 11.5499 14.9568C11.8601 15.267 11.8601 15.7805 11.5499 16.0908L9.41032 18.2303C9.26055 18.3801 9.0466 18.4656 8.84334 18.4656Z" fill="#4BA25D"/>
<path d="M8.84275 18.4656C8.63949 18.4656 8.43624 18.3907 8.27577 18.2303L6.13624 16.0907C5.82601 15.7805 5.82601 15.267 6.13624 14.9568C6.44647 14.6466 6.95996 14.6466 7.27019 14.9568L9.40973 17.0963C9.71996 17.4066 9.71996 17.9201 9.40973 18.2303C9.24926 18.3907 9.04601 18.4656 8.84275 18.4656Z" fill="#4BA25D"/>
<path d="M15.262 23.8145H8.84343C3.0346 23.8145 0.552734 21.3326 0.552734 15.5238V9.10515C0.552734 3.29631 3.0346 0.814453 8.84343 0.814453H14.1923C14.6309 0.814453 14.9946 1.17817 14.9946 1.61678C14.9946 2.05538 14.6309 2.4191 14.1923 2.4191H8.84343C3.9118 2.4191 2.15739 4.17352 2.15739 9.10515V15.5238C2.15739 20.4554 3.9118 22.2098 8.84343 22.2098H15.262C20.1937 22.2098 21.9481 20.4554 21.9481 15.5238V10.1749C21.9481 9.73631 22.3118 9.37259 22.7504 9.37259C23.189 9.37259 23.5527 9.73631 23.5527 10.1749V15.5238C23.5527 21.3326 21.0709 23.8145 15.262 23.8145Z" fill="#4BA25D"/>
<path d="M22.7504 10.9771H18.4713C14.8127 10.9771 13.3899 9.55434 13.3899 5.89573V1.61666C13.3899 1.29573 13.5825 0.996199 13.882 0.878525C14.1815 0.750153 14.5238 0.825036 14.7592 1.04969L23.3173 9.60783C23.542 9.83248 23.6169 10.1855 23.4885 10.485C23.3601 10.7846 23.0713 10.9771 22.7504 10.9771ZM14.9945 3.55294V5.89573C14.9945 8.65573 15.7113 9.37248 18.4713 9.37248H20.8141L14.9945 3.55294Z" fill="#4BA25D"/>
</svg>
