<svg width="32" height="38" viewBox="0 0 32 38" fill="none" xmlns="http://www.w3.org/2000/svg">
<path d="M12.5 4.25001C12.0042 4.25001 11.5883 4.08201 11.2523 3.74601C10.9163 3.41001 10.7488 2.99467 10.75 2.50001C10.75 2.00417 10.918 1.58826 11.254 1.25226C11.59 0.916256 12.0053 0.748839 12.5 0.750006H19.5C19.9958 0.750006 20.4118 0.918006 20.7478 1.25401C21.0838 1.59001 21.2512 2.00534 21.25 2.50001C21.25 2.99584 21.082 3.41176 20.746 3.74776C20.41 4.08376 19.9947 4.25117 19.5 4.25001H12.5ZM16 23.5C16.4958 23.5 16.9118 23.332 17.2478 22.996C17.5838 22.66 17.7512 22.2447 17.75 21.75V14.75C17.75 14.2542 17.582 13.8383 17.246 13.5023C16.91 13.1663 16.4947 12.9988 16 13C15.5042 13 15.0883 13.168 14.7523 13.504C14.4163 13.84 14.2488 14.2553 14.25 14.75V21.75C14.25 22.2458 14.418 22.6618 14.754 22.9978C15.09 23.3338 15.5053 23.5012 16 23.5ZM16 37.5C13.8417 37.5 11.807 37.0841 9.896 36.2523C7.985 35.4204 6.3155 34.2905 4.8875 32.8625C3.45834 31.4333 2.32784 29.7633 1.496 27.8523C0.664169 25.9413 0.248836 23.9072 0.250002 21.75C0.250002 19.5917 0.665919 17.557 1.49775 15.646C2.32959 13.735 3.4595 12.0655 4.8875 10.6375C6.31667 9.20834 7.98675 8.07784 9.89775 7.24601C11.8088 6.41417 13.8428 5.99884 16 6.00001C17.8083 6.00001 19.5438 6.29167 21.2063 6.87501C22.8688 7.45834 24.4292 8.30417 25.8875 9.41251L27.1563 8.14376C27.4771 7.82292 27.8708 7.66251 28.3375 7.66251C28.8042 7.66251 29.2125 7.83751 29.5625 8.18751C29.8833 8.50834 30.0438 8.91667 30.0438 9.41251C30.0438 9.90834 29.8833 10.3167 29.5625 10.6375L28.3375 11.8625C29.4458 13.3208 30.2917 14.8813 30.875 16.5438C31.4583 18.2063 31.75 19.9417 31.75 21.75C31.75 23.9083 31.3341 25.943 30.5023 27.854C29.6704 29.765 28.5405 31.4345 27.1125 32.8625C25.6833 34.2917 24.0133 35.4222 22.1023 36.254C20.1913 37.0858 18.1572 37.5012 16 37.5ZM16 34C19.3833 34 22.2708 32.8042 24.6625 30.4125C27.0542 28.0208 28.25 25.1333 28.25 21.75C28.25 18.3667 27.0542 15.4792 24.6625 13.0875C22.2708 10.6958 19.3833 9.50001 16 9.50001C12.6167 9.50001 9.72917 10.6958 7.3375 13.0875C4.94584 15.4792 3.75 18.3667 3.75 21.75C3.75 25.1333 4.94584 28.0208 7.3375 30.4125C9.72917 32.8042 12.6167 34 16 34Z" fill="white"/>
</svg>
