<svg width="24" height="25" viewBox="0 0 24 25" fill="none" xmlns="http://www.w3.org/2000/svg">
<path d="M20.4759 4.52483C19.2186 3.25623 17.6925 2.28625 16.0101 1.68652C14.3277 1.08679 12.5321 0.872619 10.7559 1.05983C5.25089 1.61483 0.720886 6.08484 0.105886 11.5898C-0.719113 18.8648 4.90589 24.9998 12.0009 24.9998C14.266 24.9998 16.4847 24.3571 18.3991 23.1463C20.3135 21.9356 21.8451 20.2064 22.8159 18.1598C23.2959 17.1548 22.5759 15.9998 21.4659 15.9998C20.9109 15.9998 20.3859 16.2998 20.1459 16.7948C19.275 18.6684 17.7854 20.1848 15.9278 21.0891C14.0701 21.9933 11.9577 22.2302 9.94589 21.7598C6.61589 21.0248 3.93089 18.3098 3.22589 14.9798C2.92953 13.6632 2.93297 12.2968 3.23593 10.9817C3.53889 9.66663 4.13363 8.43646 4.97616 7.38222C5.81869 6.32798 6.88745 5.47663 8.10339 4.89116C9.31933 4.30569 10.6513 4.00107 12.0009 3.99983C14.4909 3.99983 16.7109 5.03483 18.3309 6.66984L16.0659 8.93483C15.1209 9.87984 15.7809 11.4998 17.1159 11.4998H22.5009C23.3259 11.4998 24.0009 10.8248 24.0009 9.99984V4.61483C24.0009 3.27983 22.3809 2.60483 21.4359 3.54983L20.4759 4.52483Z" fill="#666666"/>
</svg>
