<svg width="24" height="22" viewBox="0 0 24 22" fill="none" xmlns="http://www.w3.org/2000/svg">
<path d="M14.004 9.24518C13.9089 9.24454 13.8175 9.28153 13.7496 9.34807C13.6817 9.41462 13.6429 9.50532 13.6416 9.60038V12.2548C13.6429 12.3501 13.6818 12.4409 13.75 12.5075C13.8182 12.5741 13.9099 12.6109 14.0052 12.61H22.0008C22.0961 12.6109 22.1878 12.5741 22.256 12.5075C22.3242 12.4409 22.3631 12.3501 22.3644 12.2548V9.60038C22.3631 9.50511 22.3242 9.41423 22.256 9.34765C22.1878 9.28107 22.0961 9.24422 22.0008 9.24518H14.004ZM18.9072 0.801981C20.0136 0.854781 20.8092 1.07318 21.3132 1.53638C21.8112 1.99478 22.0668 2.65838 22.1172 3.53678V6.05318C22.1147 6.26748 22.0272 6.47202 21.874 6.62187C21.7207 6.77171 21.5143 6.85462 21.3 6.85238C21.1938 6.85365 21.0884 6.83398 20.9897 6.7945C20.8911 6.75503 20.8013 6.69651 20.7253 6.62229C20.6493 6.54808 20.5886 6.45962 20.5468 6.36197C20.505 6.26433 20.4829 6.1594 20.4816 6.05318L20.4828 3.58238C20.4564 3.12638 20.3472 2.84318 20.1912 2.69918C20.04 2.55998 19.5792 2.43518 18.8676 2.39918H3.1764C2.532 2.42318 2.1132 2.54558 1.9104 2.71958C1.7544 2.85278 1.6368 3.21998 1.6356 3.85478L1.632 17.9788C1.692 18.5956 1.8276 19.0072 2.0016 19.2124C2.1336 19.3684 2.5428 19.5244 3.1452 19.6012H18.8844C19.6212 19.6156 20.0556 19.5052 20.202 19.3576C20.364 19.1932 20.4816 18.7612 20.4816 18.0544V15.6004C20.4816 15.16 20.8476 14.8012 21.3 14.8012C21.7512 14.8012 22.1172 15.16 22.1172 15.6004V18.0544C22.1172 19.1344 21.8964 19.942 21.3792 20.4664C20.8464 21.0064 19.9992 21.2224 18.8676 21.1984L3.048 21.1948C1.9716 21.07 1.2 20.7748 0.7404 20.2312C0.324 19.7392 0.0924 19.0372 0 18.0556V3.85358C0.0024 2.80238 0.2544 2.01158 0.8328 1.51718C1.3632 1.06118 2.1288 0.839181 3.1452 0.800781H18.9072V0.801981ZM22.0008 7.64678C23.1048 7.64678 24 8.52158 24 9.60038V12.2548C24 13.3336 23.1048 14.2084 22.0008 14.2084H14.0052C12.9012 14.2084 12.006 13.3324 12.006 12.2548V9.60038C12.006 8.52158 12.9012 7.64678 14.0052 7.64678H22.0008ZM16.0044 9.97478C15.4524 9.97478 15.0048 10.4068 15.0048 10.9384C15.0048 11.4712 15.4524 11.902 16.0044 11.902C16.5564 11.902 17.004 11.47 17.004 10.9384C17.004 10.4056 16.5564 9.97358 16.0044 9.97358V9.97478Z" fill="white"/>
</svg>
