<svg width="23" height="24" viewBox="0 0 23 24" fill="none" xmlns="http://www.w3.org/2000/svg">
<path d="M11.4994 0.541992C9.23311 0.541992 7.01776 1.21401 5.13345 2.47307C3.24913 3.73213 1.78049 5.52167 0.913235 7.61541C0.0459804 9.70915 -0.180933 12.013 0.261189 14.2357C0.703312 16.4584 1.79461 18.5001 3.39709 20.1026C4.99957 21.7051 7.04125 22.7964 9.26394 23.2385C11.4866 23.6806 13.7905 23.4537 15.8843 22.5864C17.978 21.7192 19.7676 20.2505 21.0266 18.3662C22.2857 16.4819 22.9577 14.2666 22.9577 12.0003C22.9577 8.96139 21.7505 6.04691 19.6016 3.89806C17.4528 1.74921 14.5383 0.541992 11.4994 0.541992ZM15.666 13.042H11.4994C11.2231 13.042 10.9581 12.9322 10.7628 12.7369C10.5674 12.5415 10.4577 12.2766 10.4577 12.0003V5.75033C10.4577 5.47406 10.5674 5.20911 10.7628 5.01376C10.9581 4.81841 11.2231 4.70866 11.4994 4.70866C11.7756 4.70866 12.0406 4.81841 12.2359 5.01376C12.4313 5.20911 12.541 5.47406 12.541 5.75033V10.9587H15.666C15.9423 10.9587 16.2072 11.0684 16.4026 11.2638C16.5979 11.4591 16.7077 11.7241 16.7077 12.0003C16.7077 12.2766 16.5979 12.5415 16.4026 12.7369C16.2072 12.9322 15.9423 13.042 15.666 13.042Z" fill="#0DB760"/>
</svg>
